<?xml version="1.0" standalone="no"?>
<!DOCTYPE svg PUBLIC "-//W3C//DTD SVG 20010904//EN" "http://www.w3.org/TR/2001/REC-SVG-20010904/DTD/svg10.dtd">
<svg version="1.0" xmlns="http://www.w3.org/2000/svg" width="900.000000pt" height="900.000000pt"
    viewBox="0 0 900.000000 900.000000" preserveAspectRatio="xMidYMid meet">
    <metadata>
        Created by potrace 1.10, written by Peter Selinger 2001-2011
    </metadata>
    <g transform="translate(0.000000,900.000000) scale(0.100000,-0.100000)" fill="#FFFFFF" stroke="none">
        <path d="M4205 8609 c-448 -25 -553 -34 -840 -74 -259 -36 -527 -88 -770 -149
-33 -8 -82 -20 -110 -26 -27 -6 -58 -15 -67 -20 -10 -6 -24 -10 -33 -10 -8 0
-34 -6 -57 -14 -24 -8 -77 -24 -118 -36 -139 -41 -406 -133 -457 -156 -17 -7
-37 -14 -45 -14 -8 0 -18 -4 -24 -8 -5 -5 -31 -17 -59 -27 -27 -9 -63 -23 -80
-31 -16 -7 -52 -22 -80 -34 -27 -12 -59 -25 -70 -30 -11 -5 -42 -19 -70 -30
-146 -63 -183 -85 -198 -115 -22 -44 -72 -152 -97 -210 -11 -27 -25 -59 -30
-70 -5 -11 -18 -42 -30 -70 -12 -27 -25 -59 -30 -70 -5 -11 -19 -45 -30 -75
-11 -30 -24 -64 -29 -75 -5 -11 -26 -67 -46 -125 -20 -58 -40 -112 -45 -120
-4 -9 -11 -31 -15 -50 -4 -19 -11 -39 -15 -45 -4 -5 -11 -26 -15 -45 -4 -19
-11 -39 -15 -45 -4 -5 -12 -28 -18 -50 -6 -22 -18 -65 -27 -95 -56 -189 -94
-339 -151 -600 -64 -295 -117 -670 -144 -1025 -13 -168 -13 -862 -1 -1030 6
-71 17 -193 26 -270 39 -369 98 -707 180 -1035 9 -36 22 -90 30 -120 7 -30 18
-73 24 -95 29 -104 43 -152 51 -175 5 -14 25 -79 45 -145 20 -66 40 -129 45
-140 4 -11 18 -49 30 -85 12 -36 29 -79 36 -97 8 -17 14 -38 14 -46 0 -9 4
-18 9 -22 5 -3 13 -20 17 -37 3 -18 10 -39 15 -48 5 -8 25 -55 44 -105 20 -49
40 -99 45 -110 5 -11 19 -42 30 -70 22 -50 52 -117 96 -210 24 -52 34 -59 144
-108 30 -14 82 -37 115 -51 33 -15 69 -31 80 -36 11 -5 43 -18 70 -30 28 -12
59 -25 70 -30 11 -5 45 -19 75 -30 30 -11 64 -25 75 -30 32 -16 259 -100 268
-100 5 0 23 -6 40 -14 18 -8 64 -24 102 -37 39 -12 102 -32 140 -45 39 -12 88
-28 110 -34 22 -6 63 -18 90 -26 28 -9 75 -22 105 -29 30 -8 82 -21 115 -30
634 -172 1501 -265 2095 -225 85 5 220 15 300 20 435 31 955 119 1385 235 33
9 78 20 100 26 22 5 51 14 65 18 14 5 59 19 100 31 167 49 508 167 605 210 11
5 45 19 75 30 68 27 80 32 155 66 262 116 226 86 300 249 40 88 44 97 75 170
12 28 25 59 30 70 24 55 49 115 66 160 10 28 24 61 31 75 7 14 13 33 13 42 0
9 4 20 10 23 6 3 10 13 10 22 0 8 6 29 14 46 8 18 31 82 51 142 20 61 40 119
45 130 5 11 18 54 30 95 12 41 25 86 30 100 8 23 21 70 51 175 16 59 54 216
84 345 63 275 124 671 145 945 6 72 15 177 20 235 13 137 13 651 0 794 -6 61
-15 167 -20 236 -22 282 -78 655 -145 950 -55 243 -80 345 -120 480 -9 30 -21
73 -27 95 -5 22 -14 49 -18 60 -5 11 -18 54 -30 95 -12 41 -25 84 -30 95 -4
11 -18 49 -30 85 -12 36 -29 79 -36 97 -8 17 -14 35 -14 40 0 10 -54 154 -75
200 -8 17 -15 36 -15 42 0 6 -4 19 -10 29 -5 9 -19 40 -30 67 -42 98 -54 127
-93 215 -90 202 -78 186 -169 228 -87 41 -147 68 -238 109 -93 42 -113 50
-165 68 -27 10 -54 21 -60 25 -5 4 -32 15 -60 25 -27 9 -63 23 -80 30 -90 37
-397 142 -545 185 -41 12 -86 25 -100 30 -24 8 -88 27 -175 50 -110 30 -374
91 -500 115 -315 61 -583 98 -830 115 -469 32 -525 33 -790 19z m770 -180
c435 -37 734 -86 1145 -184 53 -13 101 -26 228 -60 31 -9 77 -21 102 -27 25
-6 50 -14 55 -18 6 -4 27 -11 49 -14 21 -4 46 -11 55 -16 9 -5 70 -26 136 -46
66 -21 127 -41 135 -45 8 -4 80 -31 160 -60 80 -29 149 -56 154 -61 6 -4 16
-8 24 -8 11 0 40 -11 127 -50 11 -5 43 -18 70 -30 67 -28 78 -33 168 -74 44
-20 83 -36 87 -36 12 0 54 -58 73 -100 8 -19 29 -66 46 -103 17 -38 31 -71 31
-74 0 -3 10 -27 21 -52 12 -25 25 -55 30 -66 4 -11 17 -41 28 -67 12 -26 21
-53 21 -60 0 -8 4 -18 8 -24 5 -5 19 -38 32 -74 12 -36 29 -79 36 -97 8 -17
14 -38 14 -46 0 -9 4 -18 9 -21 5 -4 12 -24 16 -46 4 -22 10 -42 15 -45 5 -3
11 -23 15 -45 4 -22 10 -42 15 -45 5 -3 11 -23 15 -45 4 -22 10 -42 15 -45 5
-3 11 -24 15 -47 4 -23 11 -49 16 -58 5 -8 21 -60 35 -115 15 -55 33 -125 41
-155 94 -355 167 -758 203 -1120 5 -58 15 -150 20 -204 6 -55 13 -221 16 -370
15 -658 -69 -1348 -239 -1976 -9 -30 -23 -82 -32 -115 -29 -107 -32 -119 -50
-175 -52 -164 -107 -327 -115 -342 -6 -10 -10 -23 -10 -30 0 -7 -6 -25 -14
-40 -8 -15 -17 -40 -21 -57 -4 -17 -11 -33 -16 -36 -5 -4 -9 -13 -9 -21 0 -13
-12 -44 -50 -129 -5 -11 -25 -60 -45 -110 -38 -93 -80 -187 -118 -265 -22 -45
-50 -64 -158 -109 -19 -7 -47 -19 -64 -27 -16 -7 -52 -22 -80 -34 -27 -11 -58
-25 -67 -30 -10 -6 -23 -10 -28 -10 -6 0 -30 -8 -53 -19 -23 -10 -82 -33 -132
-51 -49 -18 -99 -36 -110 -40 -34 -15 -279 -94 -340 -111 -16 -4 -55 -15 -85
-24 -167 -49 -468 -123 -620 -152 -206 -39 -353 -62 -515 -82 -49 -6 -126 -16
-170 -22 -267 -34 -976 -51 -1250 -30 -490 39 -939 114 -1347 225 -32 9 -82
22 -110 30 -29 8 -75 21 -103 30 -27 8 -68 20 -90 26 -65 19 -308 100 -330
109 -11 5 -67 26 -125 47 -58 20 -109 41 -115 46 -5 4 -15 8 -23 8 -11 0 -40
11 -127 50 -74 33 -115 50 -119 50 -3 0 -29 11 -58 24 -29 13 -89 40 -133 60
-112 50 -107 47 -137 107 -34 68 -88 189 -88 196 0 3 -6 19 -14 36 -29 64 -54
123 -72 172 -10 28 -24 61 -31 75 -7 14 -13 33 -13 42 0 9 -5 20 -10 23 -6 3
-10 14 -10 23 0 9 -6 29 -14 44 -8 15 -17 42 -21 60 -4 18 -11 38 -15 43 -4 6
-24 64 -44 130 -21 66 -42 131 -46 145 -5 14 -14 43 -20 65 -6 22 -18 63 -26
90 -24 80 -75 275 -89 340 -7 33 -21 94 -30 135 -49 221 -92 484 -119 725 -8
72 -17 146 -20 165 -10 59 -36 547 -36 685 0 151 25 599 40 730 39 323 62 481
104 690 28 142 65 307 89 395 8 30 27 100 41 155 30 111 54 190 66 220 4 11
25 74 46 140 20 66 41 127 45 135 4 8 29 74 54 145 42 115 64 170 95 240 32
73 50 115 50 119 0 2 14 35 31 73 17 37 39 87 49 109 21 46 43 59 245 144 28
12 59 25 70 30 100 44 162 69 215 87 25 8 59 21 75 28 17 7 59 23 95 35 36 12
72 25 80 30 9 4 31 11 50 15 19 4 40 11 45 15 6 4 28 12 50 18 22 6 64 18 93
26 193 58 235 70 442 121 114 28 304 68 440 91 298 51 459 70 870 103 212 17
719 12 965 -10z" />
        <path d="M4245 7845 c-176 -25 -296 -63 -452 -142 -315 -159 -551 -471 -620
-818 -34 -175 -39 -392 -11 -520 14 -65 47 -184 58 -210 114 -266 203 -390
502 -699 58 -61 117 -124 130 -141 12 -16 31 -39 41 -50 24 -27 139 -201 162
-245 80 -159 105 -210 105 -217 1 -4 9 -26 20 -48 11 -22 19 -48 20 -57 0 -9
4 -19 9 -22 5 -3 12 -22 16 -42 3 -20 10 -44 15 -53 27 -50 92 -378 105 -521
3 -41 11 -118 16 -170 6 -52 14 -417 18 -810 l6 -715 70 0 70 0 -3 450 c-4
463 11 1105 28 1255 17 142 47 310 69 390 43 152 54 189 67 217 8 17 14 36 14
42 0 6 4 19 9 29 5 9 30 62 56 117 106 223 213 379 386 560 52 55 122 129 155
165 32 36 61 67 64 70 5 5 100 122 118 145 67 87 169 278 205 385 46 134 52
179 52 400 0 224 -4 258 -52 418 -24 80 -110 267 -136 294 -7 7 -25 33 -42 57
-43 64 -164 182 -249 246 -271 200 -660 291 -1021 240z" />
        <path d="M2698 5825 c-3 -3 -42 -10 -87 -15 -95 -12 -182 -33 -260 -61 -55
-20 -162 -69 -171 -79 -3 -3 -31 -22 -62 -43 -125 -85 -272 -270 -336 -427
-13 -30 -27 -64 -32 -75 -23 -54 -42 -137 -56 -241 -13 -102 -13 -128 0 -228
16 -125 34 -190 78 -285 80 -175 202 -297 379 -379 64 -30 88 -38 189 -61 46
-11 62 -15 190 -51 41 -12 100 -28 130 -36 121 -33 170 -48 300 -91 74 -25
139 -49 145 -54 5 -5 15 -9 22 -9 26 0 324 -143 355 -170 7 -6 41 -29 76 -52
73 -47 218 -186 283 -273 44 -58 133 -203 156 -255 34 -74 53 -121 68 -170 9
-30 21 -66 25 -80 14 -40 39 -190 44 -257 2 -34 6 -65 9 -70 3 -5 26 -7 51 -5
l46 4 0 726 c0 688 -3 769 -30 977 -18 129 -72 366 -99 430 -5 11 -17 43 -26
70 -10 28 -26 70 -37 95 -11 25 -26 61 -35 80 -47 111 -133 266 -193 351 -14
20 -32 47 -40 59 -89 135 -284 338 -425 443 -27 20 -55 41 -62 46 -15 13 -174
101 -182 101 -3 0 -17 6 -31 13 -91 47 -356 97 -382 72z" />
        <path d="M6000 5810 c-137 -33 -215 -64 -335 -134 -141 -83 -361 -282 -470
-426 -27 -36 -52 -67 -55 -70 -24 -22 -170 -264 -217 -360 -28 -57 -40 -85
-83 -185 -4 -11 -18 -49 -30 -85 -12 -36 -26 -74 -31 -85 -5 -11 -14 -40 -19
-65 -6 -25 -18 -72 -26 -105 -50 -204 -62 -319 -74 -690 -10 -338 -11 -1071
-1 -1175 l6 -65 55 -3 56 -3 11 108 c28 259 99 460 240 675 45 68 188 238 201
238 4 0 22 14 40 31 54 51 184 134 293 187 142 69 195 92 211 92 8 0 18 4 23
9 20 18 328 116 575 181 19 5 53 15 75 21 22 6 65 17 95 24 122 30 141 36 158
44 9 5 52 26 96 47 85 41 200 139 252 216 16 24 32 45 35 48 10 9 68 133 83
180 49 149 62 369 30 507 -90 399 -334 685 -674 791 -110 34 -142 42 -225 53
-140 19 -215 19 -295 -1z" />
        <path d="M7098 4032 c-39 -65 -115 -125 -233 -181 -98 -47 -98 -48 -210 -77
-153 -40 -200 -53 -262 -69 -32 -9 -76 -20 -98 -26 -22 -5 -51 -14 -65 -18
-14 -5 -59 -19 -100 -31 -41 -11 -82 -25 -90 -29 -9 -5 -30 -12 -49 -16 -18
-4 -44 -13 -59 -21 -15 -8 -34 -14 -42 -14 -9 0 -20 -4 -25 -8 -6 -5 -32 -17
-60 -27 -74 -26 -282 -129 -345 -171 -91 -60 -191 -146 -243 -209 -27 -33 -57
-69 -66 -80 -22 -27 -113 -180 -133 -225 -51 -112 -95 -289 -100 -400 l-3 -65
53 -3 53 -3 20 48 c23 54 49 106 59 113 3 3 19 22 35 43 55 74 192 163 306
201 24 8 84 22 132 31 93 18 139 17 267 -9 219 -45 390 -69 596 -83 224 -14
431 66 599 232 65 65 175 217 175 243 0 4 6 18 13 32 38 73 49 155 44 322 -5
168 -16 250 -44 328 -22 65 -75 169 -93 185 -14 13 -18 11 -32 -13z" />
        <path d="M1754 4023 c-48 -66 -85 -165 -105 -283 -25 -146 -29 -182 -29 -236
0 -73 25 -214 47 -274 20 -53 96 -182 133 -225 80 -93 172 -170 265 -219 111
-60 266 -91 399 -83 190 13 357 36 591 82 136 27 179 28 273 11 113 -21 302
-94 302 -117 0 -4 9 -11 20 -14 38 -12 144 -130 177 -196 18 -35 35 -74 38
-86 5 -17 15 -22 50 -25 25 -2 49 -2 55 0 25 9 -7 283 -40 344 -6 10 -10 23
-10 28 0 28 -114 257 -140 280 -3 3 -17 23 -33 46 -40 59 -162 183 -232 235
-84 63 -143 98 -270 158 -60 29 -118 56 -127 62 -10 5 -23 9 -29 9 -6 0 -25 6
-42 14 -18 7 -61 24 -97 36 -36 12 -74 26 -85 30 -11 5 -47 16 -80 25 -33 9
-78 23 -100 31 -22 7 -58 18 -80 23 -22 5 -65 17 -95 26 -51 15 -76 22 -227
59 -82 20 -135 36 -158 46 -187 82 -181 79 -276 173 -38 37 -70 67 -72 67 -2
0 -12 -12 -23 -27z" />
        <path d="M2390 1928 c-52 -28 -109 -146 -147 -303 -30 -127 -35 -162 -30 -214
7 -64 38 -103 105 -132 57 -25 102 -24 146 2 l36 21 0 -25 c0 -31 22 -50 52
-45 23 3 24 5 53 110 8 32 22 82 31 110 8 29 16 66 17 82 2 28 -1 30 -77 54
-88 27 -105 24 -118 -23 -9 -36 -3 -45 28 -45 54 0 46 -84 -13 -145 -40 -41
-65 -44 -109 -10 -38 29 -49 66 -35 121 24 102 63 243 78 282 17 45 58 82 91
82 58 0 111 -62 98 -114 -7 -27 8 -43 51 -55 48 -14 63 2 63 63 0 118 -74 183
-220 192 -52 4 -83 1 -100 -8z" />
        <path d="M6345 1903 c-11 -2 -39 -12 -63 -20 -37 -14 -43 -20 -38 -39 3 -12
13 -140 21 -285 17 -303 23 -359 39 -359 6 0 29 7 51 14 l40 15 -3 84 -3 84
60 23 c34 12 68 19 80 15 12 -3 32 -30 48 -65 15 -33 33 -61 40 -64 16 -6 113
16 113 26 0 4 -20 41 -45 81 -25 41 -45 77 -45 80 0 4 -20 40 -45 80 -25 41
-45 77 -45 80 0 4 -25 47 -55 97 -30 50 -55 94 -55 99 0 5 -9 20 -21 35 -20
25 -32 29 -74 19z m50 -170 c14 -32 40 -84 56 -116 37 -72 32 -93 -22 -102
-22 -4 -43 -4 -46 -1 -7 7 -19 80 -29 178 -6 60 -2 98 10 98 2 0 16 -26 31
-57z" />
        <path d="M2954 1799 c-7 -11 -13 -41 -49 -214 -8 -38 -22 -101 -30 -140 -37
-166 -47 -212 -52 -245 l-5 -36 53 -13 c63 -17 73 -8 83 72 4 28 11 66 16 82
5 17 12 47 15 68 6 35 8 37 41 37 47 0 103 -27 116 -56 8 -17 7 -43 -2 -91 -7
-38 -15 -89 -17 -114 -4 -43 -3 -47 24 -57 15 -6 43 -14 62 -17 32 -7 33 -6
29 18 -3 14 3 76 13 139 18 111 18 113 -1 146 -26 43 -25 49 4 56 13 3 35 23
47 43 19 31 23 52 24 121 l0 84 -37 32 c-29 25 -57 36 -140 55 -57 12 -116 27
-132 32 -38 12 -53 11 -62 -2z m168 -108 c13 -5 35 -12 49 -15 58 -12 63 -124
6 -172 -25 -21 -37 -24 -66 -19 -19 4 -48 13 -64 22 -24 12 -28 19 -23 41 3
15 11 52 17 82 6 30 13 58 16 63 6 10 37 9 65 -2z" />
        <path d="M5763 1771 c-64 -24 -97 -57 -113 -117 -11 -39 -11 -63 4 -157 50
-316 97 -397 226 -397 121 0 182 38 200 126 10 47 7 124 -6 145 -2 3 -26 2
-54 -4 l-51 -10 7 -56 c5 -48 3 -60 -16 -83 -53 -68 -136 -8 -155 112 -4 25
-11 61 -16 80 -29 116 -39 199 -27 227 15 36 47 62 75 63 25 0 73 -53 73 -80
0 -26 30 -33 76 -16 32 11 38 18 36 37 -4 36 -41 102 -68 123 -38 27 -127 31
-191 7z" />
        <path d="M3566 1689 c-9 -31 -25 -139 -31 -214 -4 -44 -11 -97 -16 -118 -6
-21 -10 -82 -11 -137 0 -86 2 -102 21 -129 35 -49 74 -70 149 -81 102 -14 159
-1 199 46 41 46 51 79 68 219 8 61 21 168 30 238 8 71 13 133 10 138 -4 5 -30
9 -60 9 l-54 0 -6 -47 c-3 -27 -10 -79 -15 -118 -5 -38 -12 -97 -15 -130 -15
-142 -34 -219 -61 -242 -37 -34 -88 -31 -126 7 -28 28 -30 35 -25 78 53 416
59 473 55 477 -2 2 -27 7 -56 11 -40 5 -53 3 -56 -7z" />
        <path d="M5254 1680 c-12 -5 -58 -12 -102 -15 -85 -8 -123 -29 -106 -57 5 -7
14 -60 21 -118 7 -58 19 -152 27 -210 8 -58 20 -143 26 -190 7 -47 15 -89 20
-93 4 -5 25 -4 46 2 22 5 73 13 115 17 90 8 156 37 180 79 12 20 18 52 18 95
0 82 -29 148 -76 170 -18 8 -33 19 -33 23 0 4 11 25 25 45 32 46 34 125 6 181
-24 46 -34 54 -87 69 -47 14 -51 14 -80 2z m51 -106 c18 -20 25 -38 25 -69 0
-48 -20 -72 -76 -91 -54 -18 -69 6 -76 120 -3 34 1 42 22 53 40 21 78 16 105
-13z m35 -272 c24 -20 44 -99 34 -138 -9 -33 -55 -64 -98 -64 -33 0 -35 2 -41
38 -3 20 -10 56 -16 79 -14 64 -11 83 14 93 36 14 83 11 107 -8z" />
        <path d="M4187 1549 c-21 -373 -30 -560 -26 -563 2 -2 27 -6 55 -9 63 -7 64
-6 64 139 0 65 4 106 13 116 9 13 34 17 102 20 70 2 96 7 116 22 53 41 64 66
67 158 4 77 1 92 -19 124 -33 54 -72 66 -230 72 l-137 4 -5 -83z m230 -19 c47
-21 59 -47 50 -108 -10 -55 -48 -87 -102 -85 -24 1 -49 4 -55 8 -13 8 -13 161
0 186 14 24 52 24 107 -1z" />
    </g>
</svg>