<?xml version="1.0" standalone="no"?>
<!DOCTYPE svg PUBLIC "-//W3C//DTD SVG 20010904//EN" "http://www.w3.org/TR/2001/REC-SVG-20010904/DTD/svg10.dtd">
<svg version="1.0" xmlns="http://www.w3.org/2000/svg" width="300.000000pt" height="311.000000pt"
    viewBox="0 0 300.000000 311.000000" preserveAspectRatio="xMidYMid meet">
    <metadata>
        Created by potrace 1.10, written by Peter Selinger 2001-2011
    </metadata>
    <g transform="translate(0.000000,311.000000) scale(0.050000,-0.050000)" fill="#FFFFFF" stroke="none">
        <path d="M2947 6140 c-76 -129 -221 -196 -564 -262 -359 -69 -570 -204 -677
-433 -49 -104 -72 -124 -97 -84 -22 36 -154 111 -275 156 -143 53 -141 56
-131 -234 l7 -216 -115 -22 c-249 -47 -421 -185 -596 -479 -212 -356 -283
-436 -413 -469 l-85 -21 53 -69 c72 -95 77 -198 28 -569 -66 -501 5 -737 278
-925 l50 -35 -60 -44 c-130 -95 -287 -286 -258 -312 34 -31 244 -100 348 -114
96 -13 102 -17 91 -61 -77 -307 5 -518 335 -866 217 -227 293 -357 294 -496 0
-86 14 -103 53 -64 79 79 270 48 635 -105 352 -148 607 -156 814 -25 73 46 80
47 91 15 33 -103 114 -247 177 -317 l70 -79 61 70 c34 39 93 135 132 214 l72
143 76 -48 c109 -68 239 -96 405 -84 146 10 219 32 544 167 212 88 348 106
458 60 42 -18 80 -32 84 -32 5 0 8 38 8 85 1 139 77 267 307 512 301 321 392
536 334 791 -27 117 -33 110 112 132 132 19 301 74 319 103 16 26 -140 224
-236 300 l-78 62 82 59 c238 175 303 418 240 886 -56 410 -54 465 20 567 43
60 52 83 31 83 -140 0 -241 105 -469 486 -182 303 -382 458 -627 486 l-116 14
16 72 c8 40 15 149 15 242 l0 170 -57 -4 c-32 -2 -134 -42 -226 -88 -93 -45
-172 -80 -175 -76 -4 5 -26 45 -49 91 -100 199 -291 320 -613 390 -411 89
-540 147 -616 276 -45 76 -63 76 -107 1z m278 -226 c39 -19 178 -57 308 -84
318 -67 399 -97 517 -186 221 -167 336 -534 234 -746 -142 -295 -504 -716
-504 -586 0 16 -12 22 -30 15 -49 -19 -35 11 57 116 186 212 313 475 313 645
0 296 -111 409 -501 509 -338 87 -458 137 -544 227 l-75 78 -75 -78 c-86 -90
-206 -140 -544 -227 -599 -154 -675 -555 -213 -1123 100 -124 129 -185 79
-166 -19 8 -40 3 -48 -10 -28 -46 -73 0 -273 276 -231 321 -256 379 -240 569
33 388 235 573 738 677 301 62 377 91 484 185 l96 85 75 -71 c41 -39 107 -87
146 -105z m-145 -179 c78 -67 293 -148 571 -214 401 -96 510 -340 319 -714
-118 -231 -317 -481 -327 -410 -4 30 -16 42 -35 35 -19 -7 -28 3 -28 32 0 42
-1 42 -43 4 l-43 -38 11 73 c13 83 1 107 -38 74 -22 -17 -27 -9 -27 44 0 62
-2 64 -37 32 -43 -39 -59 -42 -58 -8 5 119 -6 159 -35 135 -25 -21 -30 -17
-30 23 0 105 -42 208 -69 171 -39 -53 -51 -41 -51 53 0 98 -23 183 -96 353
-12 28 -27 70 -34 95 -17 61 -46 57 -62 -10 -8 -30 -20 -64 -28 -75 -39 -52
-100 -273 -100 -359 0 -94 -1 -96 -38 -63 -44 40 -82 -35 -82 -164 0 -68 -1
-69 -39 -35 -38 35 -39 33 -53 -66 -12 -92 -17 -100 -50 -82 -34 18 -38 12
-38 -63 0 -80 -2 -83 -37 -51 -51 47 -69 41 -55 -18 12 -46 10 -49 -27 -29
-35 18 -41 15 -41 -18 0 -77 -81 -38 -176 86 -397 515 -344 877 145 993 280
67 493 147 568 213 89 79 72 79 163 1z m-1577 -374 l124 -75 2 -173 c0 -95 -2
-173 -5 -173 -3 0 -35 15 -70 34 -35 18 -109 43 -164 56 -116 27 -124 44 -128
294 l-2 154 59 -21 c33 -11 115 -54 184 -96z m3236 34 c0 -47 -12 -142 -25
-213 l-24 -128 -105 -26 c-58 -15 -130 -40 -160 -56 l-55 -28 -1 188 -2 187
162 81 c203 101 211 101 210 -5z m-1672 -160 c61 -188 68 -355 26 -635 l-25
-170 -69 0 -69 0 -15 120 c-46 362 -42 505 15 682 67 207 70 207 137 3z
m-1704 -264 c209 -44 267 -93 515 -435 222 -307 260 -382 182 -362 -28 7 -40
1 -40 -21 0 -58 -49 -13 -123 113 -332 562 -793 703 -1052 321 -254 -374 -365
-504 -474 -557 l-109 -53 44 -83 c56 -108 66 -279 34 -594 -38 -382 10 -504
250 -622 188 -92 544 -59 851 81 109 49 142 51 125 9 -6 -18 1 -40 16 -49 47
-29 -16 -68 -192 -118 -88 -25 -263 -77 -389 -115 -258 -77 -334 -73 -526 30
-310 165 -403 440 -325 956 38 252 38 422 0 495 -39 74 -41 68 36 100 81 34
151 120 336 415 280 449 481 565 841 489z m3584 -1 c216 -56 323 -154 531
-488 179 -286 250 -375 329 -415 35 -18 65 -34 68 -37 3 -2 -8 -30 -25 -62
-39 -75 -38 -239 2 -505 77 -513 -26 -799 -345 -959 -197 -99 -242 -97 -649
25 -204 61 -380 111 -392 111 -43 0 -73 58 -38 72 26 10 28 19 10 40 -40 49
31 54 120 9 267 -136 671 -173 859 -79 232 115 286 255 243 624 -33 295 -21
506 37 599 l43 70 -108 53 c-112 55 -251 214 -420 479 -299 471 -758 364
-1124 -262 -71 -121 -108 -154 -108 -97 0 18 -14 25 -39 18 -110 -29 336 649
481 732 164 94 346 119 525 72z m-1707 -198 c0 -186 -38 -352 -79 -352 -54 0
-56 10 -27 195 50 318 106 402 106 157z m-398 -14 c61 -250 63 -338 9 -338
-42 0 -49 13 -69 127 -53 306 -5 476 60 211z m-1410 -75 c181 -93 499 -512
470 -617 -9 -34 -19 -40 -42 -26 -48 31 -64 23 -49 -22 12 -37 9 -39 -31 -18
-55 29 -70 15 -41 -38 26 -49 11 -52 -59 -12 -74 42 -106 39 -81 -9 32 -59 27
-61 -60 -31 -78 28 -81 28 -69 -11 13 -39 -72 -43 -184 -8 -38 11 -52 -29 -23
-65 24 -28 21 -30 -23 -16 -101 33 -174 44 -251 39 -43 -3 -135 -8 -204 -11
-69 -3 -125 -11 -125 -19 0 -44 405 -319 469 -319 17 0 31 -9 31 -20 0 -11
-13 -20 -30 -20 -16 0 -30 -8 -30 -18 0 -26 127 -102 172 -103 37 0 37 -1 2
-28 -40 -30 -32 -39 53 -59 55 -13 56 -16 20 -41 -35 -26 -34 -29 19 -42 41
-10 52 -23 44 -49 -8 -26 3 -39 44 -49 51 -13 53 -17 21 -40 -39 -28 -26 -51
28 -51 46 0 47 -18 2 -52 -33 -25 -33 -27 0 -27 19 -1 35 -9 35 -19 0 -19 -9
-23 -200 -93 -616 -222 -961 -86 -941 371 18 395 12 697 -14 723 -41 41 -29
68 43 102 78 37 225 207 375 432 216 323 383 394 629 266z m3483 26 c102 -43
134 -75 267 -272 166 -246 311 -414 390 -452 72 -34 84 -61 44 -101 -36 -36
-45 -366 -17 -604 45 -375 -72 -557 -377 -594 -177 -20 -679 108 -697 179 -6
19 -18 35 -27 35 -37 0 -16 36 27 48 44 12 44 13 6 42 -37 29 -37 30 14 30 61
0 92 35 46 52 -47 18 -37 48 16 48 69 0 80 24 29 64 l-46 35 53 1 c110 0 155
44 72 69 -40 11 -33 18 57 60 124 56 146 85 84 109 -45 17 -45 18 14 33 88 23
168 72 331 202 l145 117 -148 16 c-148 16 -344 8 -438 -18 -41 -11 -46 -9 -25
13 57 61 -58 79 -183 28 -33 -14 -36 -9 -25 37 l13 52 -80 -28 c-79 -28 -80
-28 -59 13 31 57 13 65 -60 28 l-62 -33 13 54 c15 57 18 56 -81 16 -21 -8 -25
0 -16 34 9 36 5 42 -23 31 -56 -21 -99 36 -70 92 235 444 560 670 813 564z
m-2187 -103 c41 -120 42 -206 2 -206 -43 0 -70 83 -70 212 0 128 23 126 68 -6z
m588 -36 c-8 -127 -34 -186 -72 -163 -12 8 -12 47 0 108 11 52 23 115 28 140
20 104 52 42 44 -85z m75 -101 c-9 -58 -24 -89 -42 -89 -37 0 -36 11 4 131 38
112 58 90 38 -42z m-763 23 c40 -84 40 -112 3 -112 -17 0 -38 32 -50 75 -40
143 -13 164 47 37z m841 -60 c-8 -42 -25 -72 -41 -72 -36 0 -35 28 3 103 40
76 56 63 38 -31z m-909 -80 c-28 -28 -80 36 -79 97 0 37 5 36 51 -17 38 -43
45 -63 28 -80z m724 -2 c892 -182 1323 -1258 811 -2023 -535 -801 -1740 -772
-2223 52 -587 1003 273 2204 1412 1971z m776 -350 c-18 -34 -29 -39 -47 -21
-17 18 -14 31 16 52 49 36 61 24 31 -31z m59 -51 c-31 -33 -51 -43 -56 -27 -5
14 8 37 28 51 62 45 79 30 28 -24z m-2263 -20 c48 -34 58 -69 21 -69 -28 0
-97 59 -97 83 0 25 26 21 76 -14z m2384 14 c0 -30 -97 -107 -119 -94 -33 21
-25 39 34 76 61 38 85 43 85 18z m-2457 -85 c53 -27 75 -48 62 -61 -21 -21
-165 53 -165 85 0 26 12 23 103 -24z m2488 -37 c-75 -77 -111 -87 -111 -32 0
30 112 107 159 109 16 1 -5 -33 -48 -77z m-2552 -21 c45 -22 81 -54 81 -70 0
-39 2 -40 -131 35 -202 113 -160 143 50 35z m2756 55 c-9 -31 -255 -164 -255
-139 0 26 205 162 247 163 9 1 13 -10 8 -24z m-2860 -105 c141 -66 182 -117
116 -142 -30 -12 -358 153 -411 207 -53 53 132 12 295 -65z m3065 72 c0 -45
-402 -251 -424 -217 -31 50 -14 73 99 126 193 90 325 127 325 91z m-3417 -63
c95 -32 424 -183 452 -208 21 -19 -45 -132 -71 -122 -17 7 -98 22 -180 33
-274 38 -684 229 -684 319 0 38 353 22 483 -22z m3887 22 l80 -3 -80 -69
c-151 -132 -385 -226 -643 -257 -46 -6 -105 -16 -133 -23 -42 -10 -52 -3 -70
49 -25 71 -36 61 186 169 251 122 374 156 520 141 33 -3 96 -6 140 -7z m-3645
-364 c142 -22 155 -28 155 -70 0 -56 -18 -58 -218 -16 -135 28 -262 76 -262
100 0 17 168 10 325 -14z m3295 -7 c-69 -83 -467 -142 -457 -68 6 43 22 50
157 70 237 35 330 35 300 -2z m-3250 -129 c74 -15 71 -17 -54 -19 -73 -1 -139
7 -146 18 -15 24 87 25 200 1z m3090 -19 c0 -25 -74 -41 -185 -42 -93 0 -130
28 -60 46 64 17 245 14 245 -4z m-3005 -67 c-10 -30 -100 -43 -171 -25 -41 10
-46 17 -23 31 46 29 204 24 194 -6z m2934 -33 c13 -21 -160 -50 -189 -32 -11
7 -20 21 -20 31 0 24 194 25 209 1z m-2929 -52 c0 -32 -87 -41 -150 -17 -48
18 2 46 85 47 45 0 65 -9 65 -30z m2866 -30 c20 0 31 -9 24 -20 -15 -24 -170
-27 -170 -3 0 31 29 45 69 34 23 -6 57 -11 77 -11z m-2866 -59 c0 -30 -29 -40
-78 -27 -34 9 -39 16 -19 28 36 23 97 22 97 -1z m2830 -45 c13 -12 -1 -17 -38
-13 -33 4 -63 19 -68 34 -10 30 69 15 106 -21z m-2851 -400 c29 -18 34 -32 19
-60 -15 -27 -12 -36 11 -36 69 0 25 -36 -60 -49 -722 -108 -1025 -602 -636
-1036 258 -287 367 -465 367 -600 0 -49 6 -57 35 -43 129 58 285 29 755 -140
450 -163 696 74 704 678 3 176 6 325 6 330 1 6 11 -6 22 -26 19 -33 24 -33 45
-6 105 137 114 -725 9 -883 -251 -378 -544 -432 -1086 -199 -227 98 -249 103
-414 104 l-173 0 -13 69 c-23 123 -88 219 -299 445 -371 396 -426 634 -236
1010 99 195 158 235 506 337 170 50 327 99 349 109 22 9 42 18 45 19 3 0 23
-10 44 -23z m3176 -96 c385 -116 429 -146 537 -368 181 -373 129 -591 -232
-974 -205 -218 -291 -344 -310 -457 l-12 -71 -174 0 c-165 -1 -187 -6 -414
-104 -484 -208 -720 -193 -976 63 -157 157 -172 208 -176 616 -3 381 5 415 94
409 l49 -4 5 -310 c8 -592 260 -831 704 -668 449 165 627 198 755 140 29 -14
35 -6 35 43 0 134 108 311 370 603 201 225 233 369 129 578 -101 202 -421 394
-759 454 -72 13 -114 110 -48 110 15 0 28 14 28 32 0 21 11 28 31 20 17 -6
181 -57 364 -112z m-4248 -70 c39 -16 99 -30 132 -30 76 0 76 -3 -6 -128 -37
-56 -74 -122 -82 -147 -18 -58 -89 -59 -274 -4 -168 50 -169 58 -6 214 147
140 137 136 236 95z m5150 -98 c149 -156 150 -163 18 -200 -218 -62 -292 -63
-306 -5 -7 28 -44 95 -81 147 -82 116 -83 126 -13 127 30 1 87 13 125 28 113
43 128 37 257 -97z m-1147 14 c637 -203 784 -516 428 -916 -201 -226 -312
-387 -338 -491 l-22 -89 -124 6 c-103 5 -164 -7 -364 -76 -415 -142 -427 -145
-527 -130 -116 17 -284 173 -324 300 -41 134 -50 630 -11 630 18 0 32 14 32
30 0 45 31 36 55 -15 l21 -45 18 48 19 47 43 -67 c37 -59 43 -62 44 -24 0 64
31 72 57 15 29 -65 71 -64 58 1 -13 71 14 62 65 -20 42 -68 80 -77 80 -19 0
42 5 39 111 -66 95 -94 96 -95 108 -45 l13 50 49 -58 c41 -48 418 -312 446
-312 36 0 -141 475 -203 545 -27 32 -27 35 3 35 46 0 -22 150 -86 189 -43 27
-20 50 30 31 87 -33 96 -23 41 49 -62 82 -65 99 -12 85 22 -6 40 -3 40 5 0 8
-18 36 -40 61 -22 25 -40 50 -40 54 0 5 18 3 40 -4 49 -15 51 4 7 53 -31 35
-31 37 10 37 52 0 56 30 8 58 -33 20 -33 21 0 21 38 1 47 31 15 51 -102 63 11
52 250 -24z m-2851 22 c-22 -25 -22 -34 -1 -47 20 -12 21 -26 3 -58 -19 -37
-17 -43 19 -43 39 0 39 -2 8 -50 -31 -48 -31 -50 11 -50 l44 0 -42 -53 c-32
-41 -36 -58 -17 -69 19 -12 16 -25 -10 -53 -46 -51 -43 -84 6 -71 51 14 50 10
-12 -101 -50 -91 -51 -93 -10 -93 52 0 52 -8 -1 -79 -40 -55 -202 -501 -181
-501 30 0 365 229 423 289 79 81 102 89 86 29 -20 -76 100 15 226 172 31 38
31 38 21 -23 -14 -86 7 -98 61 -33 36 44 46 49 46 21 1 -19 7 -35 14 -35 7 0
25 16 39 35 22 28 31 30 45 8 13 -20 27 -13 60 30 l42 57 1 -60 1 -60 37 48
c26 34 41 40 51 23 11 -18 22 -18 37 -3 51 51 59 11 50 -283 -14 -429 -124
-630 -365 -666 -93 -14 -111 -10 -521 131 -201 69 -261 81 -366 76 l-125 -6
-12 76 c-14 88 -80 192 -241 380 -210 246 -261 317 -285 397 -57 191 72 404
319 528 256 128 605 218 539 137z m161 -47 c0 -22 -65 -61 -102 -61 -15 0 -11
15 12 40 38 42 90 54 90 21z m50 -61 c12 -19 -101 -100 -139 -100 -10 0 7 27
39 60 61 64 80 72 100 40z m2290 -30 c26 -27 40 -50 32 -50 -30 0 -132 62
-132 81 0 35 53 19 100 -31z m-2316 -113 c-115 -107 -152 -97 -45 12 48 49 97
84 107 77 11 -7 -17 -47 -62 -89z m2274 39 c83 -78 52 -96 -57 -34 -62 35 -75
51 -58 71 31 38 38 35 115 -37z m-2150 -13 c13 -20 -194 -223 -227 -223 -39 0
-22 28 83 134 107 108 125 119 144 89z m2048 -31 c67 -35 175 -147 158 -164
-11 -12 -139 55 -222 117 -70 53 -19 90 64 47z m-2027 -154 c-117 -122 -277
-245 -285 -220 -26 77 280 386 332 335 30 -30 26 -39 -47 -115z m2144 -104
c36 -46 57 -87 46 -91 -20 -7 -319 251 -319 276 0 64 163 -46 273 -185z m-124
-18 c195 -184 249 -264 321 -476 60 -177 58 -181 -64 -99 -231 157 -304 239
-462 521 -22 40 -52 91 -66 114 -23 36 -20 46 23 81 58 47 36 60 248 -141z
m-1844 136 c97 -73 -218 -528 -480 -692 -144 -90 -148 -83 -74 115 70 186 129
270 317 449 172 164 182 170 237 128z m155 -101 c0 -56 -222 -380 -274 -400
-42 -16 -19 46 98 264 88 166 103 183 137 164 22 -11 39 -24 39 -28z m1402
-26 c179 -296 226 -450 92 -302 -123 135 -209 305 -175 346 34 41 30 42 83
-44z m-94 -85 c52 -100 70 -193 32 -170 -35 22 -123 213 -112 242 16 43 24 36
80 -72z m-1239 35 c-52 -169 -150 -295 -122 -156 21 106 70 201 103 201 25 0
29 -11 19 -45z m71 -4 c0 -43 -64 -171 -85 -171 -10 0 -14 11 -8 25 6 14 21
59 35 100 24 75 58 101 58 46z m1065 -49 c28 -106 6 -144 -32 -58 -18 41 -33
89 -33 107 0 55 47 20 65 -49z m-985 27 c0 -24 -59 -149 -71 -149 -12 0 7 116
25 145 10 17 46 20 46 4z m900 -73 c0 -96 -31 -84 -52 20 -10 51 -6 64 20 64
24 0 32 -20 32 -84z m-831 19 c-23 -77 -49 -87 -49 -19 0 45 9 64 31 64 24 0
28 -12 18 -45z m739 28 c16 -25 -10 -104 -30 -92 -24 15 -23 109 1 109 10 0
23 -7 29 -17z m-648 -21 c0 -35 -24 -82 -42 -82 -10 0 -18 23 -18 50 0 31 11
50 30 50 17 0 30 -8 30 -18z m560 -21 c0 -50 -32 -70 -48 -29 -19 50 -14 68
18 68 17 0 30 -17 30 -39z m-168 -1118 c84 -98 84 -97 -3 -260 -134 -253 -140
-253 -268 13 -72 148 -74 166 -21 214 22 20 68 80 103 134 l63 98 29 -59 c15
-33 59 -96 97 -140z" />
        <path d="M2955 4324 c-39 -8 -53 -184 -15 -184 11 0 20 14 20 30 0 40 38 38
84 -3 40 -37 78 -21 40 17 -15 15 -17 31 -3 47 45 55 -32 113 -126 93z m80
-59 c5 -15 -9 -25 -33 -25 -25 0 -42 13 -42 31 0 37 62 32 75 -6z" />
        <path d="M2736 4306 c-64 -16 -62 -156 3 -195 28 -17 101 6 101 32 0 11 -17
14 -38 8 -21 -7 -44 -4 -50 6 -6 10 6 23 28 29 22 6 40 21 40 33 0 15 -16 19
-40 11 -24 -8 -40 -4 -40 11 0 12 18 27 40 33 22 6 40 19 40 28 0 19 -25 20
-84 4z" />
        <path d="M3173 4287 c-28 -28 -11 -69 37 -91 28 -12 50 -31 50 -41 0 -11 -22
-14 -50 -7 -50 13 -69 -14 -29 -39 85 -52 156 60 74 118 l-45 31 45 1 c25 1
45 10 45 21 0 22 -106 28 -127 7z" />
        <path d="M2595 4249 c-8 -9 -15 -38 -15 -66 l0 -50 -50 47 c-77 73 -86 28 -10
-50 56 -58 71 -65 85 -40 21 37 11 180 -10 159z" />
        <path d="M3374 4245 c-23 -38 -35 -145 -18 -145 18 0 64 103 64 143 0 21 -34
22 -46 2z" />
        <path d="M3480 4202 c0 -10 10 -22 23 -26 16 -6 12 -25 -13 -63 -47 -73 -18
-98 33 -28 22 30 53 55 69 55 45 0 32 32 -23 57 -61 28 -89 29 -89 5z" />
        <path d="M2380 4149 c0 -28 63 -129 81 -129 26 0 24 12 -12 81 -26 51 -69 81
-69 48z" />
        <path d="M2300 4109 c0 -7 10 -30 22 -52 21 -39 18 -40 -60 -27 -95 16 -104
-3 -41 -92 52 -72 96 -77 49 -5 l-34 52 92 -14 c106 -16 106 -16 50 78 -37 62
-78 94 -78 60z" />
        <path d="M2790 4072 c-562 -114 -938 -699 -800 -1243 220 -859 1312 -1087
1840 -384 567 754 -111 1815 -1040 1627z m162 -93 c19 -16 28 -66 28 -149 l0
-125 -84 -13 c-46 -8 -125 -32 -175 -54 l-91 -40 -46 56 c-84 103 -106 159
-82 212 54 119 352 193 450 113z m333 20 c42 -12 112 -56 157 -99 l82 -77 -37
-62 c-20 -34 -55 -85 -78 -115 l-43 -53 -93 46 c-52 25 -130 50 -173 56 -83
11 -99 56 -83 233 9 91 104 116 268 71z m-750 -323 l67 -93 -72 -94 c-39 -52
-85 -120 -101 -152 -34 -65 -44 -66 -178 -19 -157 55 -173 158 -48 310 144
173 233 187 332 48z m1182 54 c105 -89 176 -290 128 -362 -15 -22 -222 -98
-234 -85 -3 4 -21 37 -40 73 -18 37 -65 102 -104 145 l-71 78 46 65 c106 156
169 175 275 86z m-465 -148 c205 -97 328 -292 328 -522 0 -610 -826 -803
-1099 -256 -247 494 269 1016 771 778z m-993 -295 l111 -33 0 -193 0 -193
-113 -36 c-129 -41 -185 -25 -218 61 -41 109 -13 316 53 390 41 45 31 44 167
4z m1670 -5 c73 -82 63 -342 -17 -436 l-46 -53 -118 38 -118 37 0 192 0 192
90 31 c125 43 168 43 209 -1z m-1503 -511 c18 -38 65 -106 105 -150 l73 -80
-68 -96 c-114 -159 -254 -126 -354 82 -78 160 -55 241 80 283 124 39 127 38
164 -39z m1374 12 c121 -57 89 -220 -69 -360 -131 -114 -177 -110 -272 29
l-62 89 61 70 c33 38 81 105 106 149 51 89 89 93 236 23z m-1030 -313 c66 -27
140 -49 165 -50 45 0 61 -79 48 -230 -12 -127 -286 -112 -428 25 -71 68 -69
117 7 221 72 99 57 96 208 34z m657 -18 c151 -198 54 -330 -248 -339 -128 -4
-155 25 -161 176 l-6 118 115 26 c63 15 139 40 169 56 73 40 72 40 131 -37z" />
        <path d="M2682 3905 c-81 -41 -108 -101 -75 -165 24 -47 68 -51 57 -6 -3 14
27 39 68 55 91 39 108 39 108 1 0 -16 9 -30 20 -30 40 0 21 117 -24 149 -57
39 -71 39 -154 -4z m108 -24 c9 -15 -106 -81 -142 -81 -51 0 58 85 126 99 2 1
9 -8 16 -18z" />
        <path d="M3145 3880 c-47 -74 -27 -155 23 -92 31 41 163 -4 159 -54 -3 -43 44
-45 61 -2 24 63 14 113 -21 100 -46 -18 -167 25 -167 60 0 40 -26 35 -55 -12z" />
        <path d="M2293 3600 c-29 -49 -30 -60 -6 -60 16 0 35 15 42 34 11 30 17 29 55
-9 48 -48 37 -103 -24 -119 -45 -12 -55 -66 -13 -66 37 0 133 98 133 135 0 28
-111 145 -138 145 -7 0 -29 -27 -49 -60z" />
        <path d="M3544 3649 c-24 -17 -44 -44 -44 -60 0 -41 25 -36 66 12 43 50 81 31
69 -33 -8 -40 -1 -48 38 -48 63 0 61 -54 -3 -84 -59 -26 -66 -56 -13 -56 80 0
142 146 73 173 -16 6 -30 23 -30 38 0 74 -86 107 -156 58z" />
        <path d="M2808 3512 c-484 -211 -327 -932 203 -932 515 0 653 733 176 933 -83
34 -298 34 -379 -1z m409 -61 c232 -121 300 -483 127 -678 -277 -314 -784
-128 -784 287 0 342 351 551 657 391z" />
        <path d="M2850 3382 c-254 -116 -281 -462 -48 -616 179 -118 433 -50 519 140
140 309 -165 617 -471 476z m264 -205 c67 -64 64 -180 -7 -236 -111 -87 -267
-20 -267 114 0 148 167 222 274 122z" />
        <path d="M2131 3156 c-31 -46 -41 -147 -19 -204 9 -23 38 -32 100 -32 l88 0 0
107 c0 156 -97 230 -169 129z m105 -20 c49 -49 30 -176 -26 -176 -60 0 -87 77
-53 151 25 55 44 60 79 25z" />
        <path d="M3700 3180 c0 -11 14 -20 30 -20 43 0 42 -171 -1 -188 -47 -18 -15
-52 49 -52 110 0 170 154 92 240 -38 42 -170 57 -170 20z m156 -113 c4 -36 -6
-71 -25 -86 -27 -23 -31 -15 -31 68 0 107 46 121 56 18z" />
        <path d="M2284 2699 c-124 -115 34 -324 172 -228 54 38 57 69 5 69 -21 0 -57
24 -80 53 -44 57 -54 107 -20 107 12 0 16 9 9 20 -18 29 -37 25 -86 -21z m115
-204 c2 -33 -58 -13 -88 29 -61 88 -37 134 29 56 32 -38 59 -77 59 -85z" />
        <path d="M3551 2665 c-118 -173 10 -290 147 -134 79 90 78 116 -9 167 -89 53
-79 55 -138 -33z m120 -13 c38 -28 38 -30 -3 -85 -80 -108 -162 -60 -94 55 40
67 45 68 97 30z" />
        <path d="M2644 2409 c-65 -46 -4 -129 95 -129 40 0 21 34 -34 58 -45 21 -49
28 -23 43 79 44 190 -57 130 -118 -26 -26 -43 -28 -92 -9 -66 25 -96 4 -50
-34 45 -38 129 -30 175 16 101 101 -79 258 -201 173z" />
        <path d="M3335 2403 c-16 -59 -152 -94 -188 -47 -23 30 -26 27 -26 -31 -1 -98
56 -146 150 -125 93 21 134 61 134 130 0 73 -55 130 -70 73z m-6 -136 c-39
-29 -113 -36 -136 -13 -8 8 24 28 71 46 91 34 129 14 65 -33z" />
        <path d="M3629 4037 c-59 -62 -59 -63 -10 -51 59 15 101 -16 102 -73 0 -40 3
-39 50 13 59 67 63 125 10 153 -61 33 -90 25 -152 -42z m144 -8 c7 -17 7 -36
0 -43 -14 -14 -73 31 -73 56 0 31 61 20 73 -13z" />
        <path d="M2100 3953 c0 -4 18 -28 40 -53 73 -84 31 -156 -48 -82 -46 44 -92
55 -92 23 0 -27 101 -101 139 -101 82 0 106 99 42 175 -32 38 -81 61 -81 38z" />
        <path d="M3880 3921 c-24 -16 -25 -30 -6 -80 26 -69 -2 -84 -46 -26 -25 32
-27 32 -27 -9 -1 -63 73 -100 115 -59 27 27 28 39 4 82 -32 60 -8 97 29 46 31
-43 51 -45 51 -6 0 50 -73 81 -120 52z" />
        <path d="M3921 2461 c-54 -54 -52 -104 5 -158 60 -56 67 -55 81 17 9 44 23 60
54 60 58 0 40 41 -36 86 -61 36 -64 35 -104 -5z m79 -49 c0 -40 -53 -80 -70
-52 -20 32 4 80 39 80 17 0 31 -12 31 -28z" />
        <path d="M2080 2404 c0 -9 11 -27 25 -41 20 -21 17 -31 -14 -55 -49 -35 -75
-28 -101 28 -24 54 -50 57 -50 7 0 -97 109 -128 194 -55 55 48 55 49 18 90
-39 43 -72 55 -72 26z" />
        <path d="M3743 2274 c-53 -57 -55 -81 -6 -65 27 8 48 -4 72 -41 25 -38 41 -46
57 -30 15 15 9 34 -23 69 -27 28 -39 60 -31 80 18 48 -18 41 -69 -13z" />
        <path d="M2151 2216 c-41 -59 -39 -82 7 -125 89 -80 233 40 153 128 -49 54
-121 52 -160 -3z m129 -26 c31 -37 -5 -90 -60 -90 -45 0 -68 56 -38 93 30 35
67 34 98 -3z" />
        <path d="M3540 2127 c-27 -18 -53 -36 -56 -38 -10 -8 84 -148 99 -149 7 0 17
18 23 40 7 29 27 40 72 40 34 0 62 9 62 20 0 11 -13 20 -29 20 -15 0 -31 20
-35 45 -8 57 -70 67 -136 22z m100 -24 c0 -9 -17 -32 -38 -51 -45 -41 -80 -8
-41 39 26 31 79 40 79 12z" />
        <path d="M2354 2104 c-67 -73 -22 -184 74 -184 74 0 103 89 38 118 -48 22 -50
21 -38 -29 11 -43 7 -51 -22 -45 -47 9 -57 82 -15 117 26 21 40 22 72 2 35
-22 40 -21 34 11 -10 51 -101 57 -143 10z" />
        <path d="M3315 2039 c-38 -23 -52 -199 -15 -199 11 0 20 9 20 19 0 36 80 66
109 41 44 -36 52 8 15 82 -37 73 -74 89 -129 57z m75 -60 c0 -16 -16 -31 -35
-35 -34 -7 -49 36 -21 63 21 21 56 3 56 -28z" />
        <path d="M2640 2023 c0 -11 15 -29 34 -40 31 -18 31 -22 -1 -71 -32 -50 -38
-51 -78 -23 -54 38 -77 39 -63 4 13 -35 88 -68 130 -58 55 12 110 185 60 185
-10 0 -33 5 -50 12 -18 7 -32 3 -32 -9z" />
        <path d="M2821 1947 c-45 -57 -60 -174 -17 -131 29 29 136 32 136 4 0 -11 9
-20 20 -20 32 0 23 134 -11 169 -45 44 -80 39 -128 -22z m119 -39 c0 -17 -21
-28 -50 -28 -52 0 -71 49 -25 65 37 13 75 -6 75 -37z" />
        <path d="M3131 1964 c-26 -25 -38 -27 -45 -9 -21 56 -46 20 -46 -65 0 -95 27
-121 47 -46 l11 44 49 -45 c27 -25 54 -38 60 -27 7 10 -6 35 -28 55 -36 32
-37 38 -8 70 42 46 6 67 -40 23z" />
    </g>
</svg>