<?xml version="1.0" standalone="no"?>
<!DOCTYPE svg PUBLIC "-//W3C//DTD SVG 20010904//EN" "http://www.w3.org/TR/2001/REC-SVG-20010904/DTD/svg10.dtd">
<svg version="1.0" xmlns="http://www.w3.org/2000/svg" width="225.000000pt" height="225.000000pt"
    viewBox="0 0 225.000000 225.000000" preserveAspectRatio="xMidYMid meet">
    <metadata>
        Created by potrace 1.10, written by Peter Selinger 2001-2011
    </metadata>
    <g transform="translate(0.000000,225.000000) scale(0.050000,-0.050000)" fill="#FFFFFF" stroke="none">
        <path d="M361 4457 c-99 -29 -234 -128 -302 -222 l-59 -81 0 -1523 0 -1523 59
-93 c32 -51 93 -116 135 -143 175 -116 116 -112 1810 -112 l1558 0 -6 -380
c-3 -209 0 -380 8 -380 104 0 453 301 595 512 289 432 304 544 297 2175 l-6
1323 -52 110 c-63 134 -177 252 -298 308 -102 47 -3583 74 -3739 29z m3684
-256 c171 -108 183 -153 191 -716 l8 -485 -532 0 c-638 0 -547 73 -716 -575
-69 -266 -131 -485 -138 -485 -6 0 -27 56 -46 125 -226 831 -505 1723 -547
1750 -65 43 -137 7 -162 -79 -10 -36 -61 -205 -112 -376 -171 -571 -387 -1309
-400 -1367 -22 -97 -8 -146 -317 1067 -65 257 -201 205 -287 -109 l-57 -211
-242 0 c-271 0 -317 -20 -304 -133 10 -88 72 -106 360 -107 297 0 352 15 369
100 7 33 20 66 30 72 10 6 13 19 7 28 -6 9 -2 23 9 29 11 7 15 -7 10 -32 -4
-25 18 -149 49 -276 138 -553 247 -953 266 -976 37 -44 154 -31 176 20 18 42
470 1566 519 1750 28 105 52 108 71 10 7 -41 89 -331 180 -645 92 -313 204
-696 249 -849 87 -297 98 -314 190 -306 65 5 92 44 129 185 12 44 58 211 102
370 44 160 99 358 122 440 22 83 54 197 71 255 l30 105 460 0 460 0 -8 -765
c-11 -959 -50 -1127 -347 -1500 -123 -154 -122 -156 -112 175 l9 290 -1663 0
c-1837 0 -1735 -7 -1856 123 -108 116 -106 89 -106 1527 0 1478 -7 1401 133
1534 100 95 73 93 1908 95 l1751 1 93 -59z" />
    </g>
</svg>